<svg xmlns="http://www.w3.org/2000/svg" width="157.733" height="57.371" viewBox="0 0 157.733 57.371">
  <g id="Soccer_Locker_Logo" data-name="Soccer Locker Logo" transform="translate(-0.07 -0.701)">
    <path id="Path_41" data-name="Path 41" d="M-225.925-13.67l.211.157a3.468,3.468,0,0,1,1.076,1.52c.046.093.094.185.141.28a6.458,6.458,0,0,1,.368,1.707c.013.1.013.1.026.193a33.726,33.726,0,0,1,.207,4.579q0,.573,0,1.145A31.329,31.329,0,0,1-224.117.3c-.015.11-.029.219-.043.331a5.359,5.359,0,0,1-1.707,3.277c-2.783,1.925-7.51,1.224-10.758,1.214-.477,0-.954,0-1.431,0a62.216,62.216,0,0,1-7.244-.158l-.379-.03A6.349,6.349,0,0,1-248.857,3.8v-.2l-.179-.073a3.227,3.227,0,0,1-1.105-1.707c-.026-.065-.05-.129-.076-.2a13.51,13.51,0,0,1-.444-4.441V-3.3q0-.508,0-1.017,0-.641,0-1.283c-.014-6.089-.014-6.089,1.53-7.708,2.5-2.309,20.528-2.507,23.193-.363Zm-18.159,4.51c-.844,1.086-.744,2.872-.765,4.175,0,.121-.006.243-.009.368a5.278,5.278,0,0,0,.82,3.819,3.715,3.715,0,0,0,2.25.842l.316.034c1.471.119,2.951.081,4.421.065l.253,0q.8-.007,1.6-.023l.519-.009a16.451,16.451,0,0,0,2.605-.2l.207-.036a2.761,2.761,0,0,0,1.628-.913c.887-1.846.8-5.349.2-7.3a2.389,2.389,0,0,0-1.283-1.4,13.123,13.123,0,0,0-3.464-.194H-240.1a5.465,5.465,0,0,0-3.977.773Z" transform="translate(272.571 40.554)" fill="#060203"/>
    <path id="Path_42" data-name="Path 42" d="M-117.273-.076c1.964-.027,3.918.013,5.882.09l.308.012c3.721.145,3.721.145,5.171,1.184l.247.167.148.129v.2l.3.1a7.462,7.462,0,0,1,.395.7l.106.214a6.861,6.861,0,0,1,.585,2.25c.008.071.017.142.025.215a25.518,25.518,0,0,1,.094,2.605c0,.082,0,.164,0,.249,0,.436,0,.871,0,1.3,0,.355,0,.711,0,1.066.039,6.346.039,6.346-1.668,8.152a6.1,6.1,0,0,1-3.691,1.283l-.193.018c-2.359.212-4.747.152-7.116.146-.544,0-1.086,0-1.628,0h-2.546c-6.01.013-6.01.013-7.659-1.52-1.165-1.293-1.322-2.882-1.48-4.54-.009-.077-.017-.155-.026-.234-.068-.687-.089-1.362-.09-2.053,0-.113,0-.226,0-.342,0-.238,0-.477,0-.715,0-.355,0-.711,0-1.066-.015-6.2-.015-6.2,1.7-8.122a5.183,5.183,0,0,1,1.579-.888l.212-.08a7.765,7.765,0,0,1,2.28-.367l.242-.012c1.184-.057,2.378-.071,3.573-.09l.384-.006q1.437-.024,2.872-.041Zm-6.454,5.892c-1.115,1.53-.793,4.875-.593,6.652a2.663,2.663,0,0,0,1.056,1.934c2.4,1.431,7.254.588,9.968.5l.32-.009a3.549,3.549,0,0,0,2.605-.842c.836-1.007.711-2.507.709-3.75V10.1a6.989,6.989,0,0,0-.906-4.53c-1.1-.8-2.586-.622-3.869-.619h-1.884c-.542,0-1.086,0-1.628,0h-1.862c-2.142-.095-2.142-.095-3.938.88Z" transform="translate(156.616 0.803)" fill="#060203"/>
    <path id="Path_43" data-name="Path 43" d="M-194.619-10.184v.2l.167.061a3.007,3.007,0,0,1,1.115,1.52l.087.189a8.619,8.619,0,0,1,.308,3.267,12.422,12.422,0,0,1-1.924.109h-.322l-1.007,0h-.688l-1.678,0c-.019-.082-.038-.164-.056-.249l-.078-.324-.075-.323a1.272,1.272,0,0,0-.58-.783,4.088,4.088,0,0,0-1.51-.259l-.272-.011c-1.036-.038-2.073-.041-3.109-.039-.33,0-.658,0-.987,0a8.867,8.867,0,0,0-4.293.507l-.3.1a2.548,2.548,0,0,0-.123.888l-.008.253a1.119,1.119,0,0,0,.329.636v.2A2.875,2.875,0,0,0-208.545-4l.342.024.363.022.379.025,1.1.068.266.017c.966.059,1.934.089,2.9.113a48.892,48.892,0,0,1,6.958.4l.249.03A4.443,4.443,0,0,1-193.1-1.7a10.281,10.281,0,0,1,.684,6.405c-.022.146-.022.146-.044.3a4.526,4.526,0,0,1-.677,1.707l-.129.259a4.006,4.006,0,0,1-2.724,1.54q-.351.041-.7.08l-.222.025a40.282,40.282,0,0,1-4.352.2h-2.076c-.475,0-.949,0-1.421,0-8.073.03-8.073.03-9.869-1.569A5.189,5.189,0,0,1-215.8,3.6c-.016-.365-.041-.722-.092-1.086-.014-.114-.027-.229-.04-.347.169-.169.387-.115.617-.119l.336-.006.365,0,.371-.006.979-.015,1-.016,1.964-.031c.189.656.189.656.264.964a1.412,1.412,0,0,0,.47.911l.253.1.188.1a1.294,1.294,0,0,0,.615.119l.245,0H-208l.281,0h2.906c.573,0,1.145,0,1.717,0,.442,0,.884,0,1.322,0l.635,0c.3,0,.593,0,.889,0l.262,0a4.284,4.284,0,0,0,1.717-.336,1.913,1.913,0,0,0,.326-1.421,1.958,1.958,0,0,0-.326-.852v-.2a8.25,8.25,0,0,0-2.931-.334l-.84-.021L-202.719,1c-2.3-.056-4.589-.126-6.879-.27l-.294-.018c-1.737-.108-3.513-.228-4.8-1.549a6.55,6.55,0,0,1-.907-3.859c0-.266,0-.532-.009-.8a5.964,5.964,0,0,1,1.046-3.888l.15-.2a3.38,3.38,0,0,1,1.53-1.076l.214-.092a6.389,6.389,0,0,1,2.181-.354l.271-.013c1.165-.05,2.329-.075,3.5-.1l.362-.007c9.544-.167,9.544-.167,11.744,1.056Z" transform="translate(216 12)" fill="#060203"/>
    <path id="Path_44" data-name="Path 44" d="M-.117-.126c5,.017,5,.017,7.1.026,1.451.006,2.892.012,4.342.016,1.056,0,2.112.007,3.158.012l1.678.006,1.579.007h.576c2.951,0,2.951,0,4.224,1.145C24,2.586,23.79,4.915,23.78,6.869c-.038,2.763-.038,2.763-.709,3.563l-.162.194a2.7,2.7,0,0,1-1.224.793l-.208.083a2.231,2.231,0,0,1-.877.213l.1.2a3.72,3.72,0,0,0,.562.093A2.4,2.4,0,0,1,23,12.947c.8,1.174.608,2.684.588,4.027-.008.772-.016,1.54-.025,2.339H17.936a4.041,4.041,0,0,1-.116-1.026c0-.123,0-.247-.007-.374,0-.258-.007-.516-.009-.774a3.563,3.563,0,0,0-.663-2.329,1.449,1.449,0,0,0-.953-.262l-.289-.006-.317,0-.334-.006c-.364-.007-.728-.012-1.1-.018l-.376-.007c-2.694-.044-5.389-.047-8.083-.037,0,.059,0,.118,0,.18q0,.919,0,1.836l0,.688c0,.329,0,.656,0,.985,0,.1,0,.206,0,.313v.287c0,.084,0,.168,0,.255-.012.191-.012.191-.111.29H-.13V-.14ZM5.607,4.808c-.009.148-.012.3-.011.446v.287c0,.1,0,.206,0,.313s0,.21,0,.318c0,.338,0,.674,0,1.007,0,.228,0,.456,0,.684,0,.56,0,1.115,0,1.678,1.392,0,2.783.008,4.165.01l1.934,0,1.865,0,.713,0c.333,0,.665,0,1,0l.3,0a3.392,3.392,0,0,0,1.846-.389,3.613,3.613,0,0,0,.612-2.665A2.615,2.615,0,0,0,17.441,5a2.163,2.163,0,0,0-1.579-.332h-.332c-.362,0-.724,0-1.086,0h-.754c-.526,0-1.056,0-1.579,0-.676,0-1.352,0-2.033,0l-1.559,0H7.771l-1.046,0H6.409l-.285,0H5.875c-.188-.008-.188-.008-.285.112Z" transform="translate(134.007 26.024)" fill="#060203"/>
    <path id="Path_45" data-name="Path 45" d="M-1.018-.438C1.548-.447,4.1-.454,6.67-.459l3.573-.009Q11.8-.474,13.351-.476c.549,0,1.1,0,1.648,0,.517,0,1.036,0,1.549,0l.567,0A5.587,5.587,0,0,1,21.439.9a4.5,4.5,0,0,1,1.066,3c0,.073,0,.145.007.22.006.233.012.465.017.7q0,.118.006.24c.022.922.039,1.846,0,2.763,0,.073,0,.145-.008.22a4.138,4.138,0,0,1-1.352,2.773A3.838,3.838,0,0,1,19.6,11.3v.3l.389.019a2.8,2.8,0,0,1,1.934,1.174,5.055,5.055,0,0,1,.474,2.536c0,.095,0,.189,0,.285,0,.345,0,.691-.009,1.036-.006.776-.013,1.549-.019,2.349H16.738c-.031-1.471-.031-1.471-.038-1.925a4.028,4.028,0,0,0-.652-2.517v-.2a15.183,15.183,0,0,0-4.175-.207h-.624l-1.628,0-1.954,0-2.961,0L4.607,19H-1.117q0-3.7,0-7.382,0-1.717,0-3.434,0-1.5,0-2.99c0-.527,0-1.056,0-1.579V2.124c0-.182,0-.364,0-.547V.831c0-.072,0-.144,0-.219A4.381,4.381,0,0,1-1.018-.444ZM4.607,4.4V9.234l3.592.01c.734,0,1.471,0,2.2,0l1.776,0,.676,0c.317,0,.634,0,.949,0l.279,0a4.211,4.211,0,0,0,2.171-.4A3.678,3.678,0,0,0,16.864,6a1.948,1.948,0,0,0-.6-1.372,1.831,1.831,0,0,0-1.066-.24H12.47l-1.757,0-2.546,0L4.6,4.4Z" transform="translate(135.205 1.465)" fill="#060203"/>
    <path id="Path_46" data-name="Path 46" d="M-6.183,0h.51c.291,0,.582,0,.874,0h.624c.567,0,1.135,0,1.7,0H-.7l3.365,0,3.829,0,7.876,0q0,.946,0,1.895l0,.644c0,.308,0,.616,0,.924,0,.1,0,.193,0,.292v.269c0,.079,0,.158,0,.239-.012.181-.012.181-.111.279-.177.01-.353.013-.53.013H1.422c-.854,0-1.7-.048-2.546-.112l-.1,2.862,1.352,0,4.4,0,2.665,0,2.329,0h3.723c.242.012.242.012.34.111.009.133.012.267.011.4v.258c0,.092,0,.185,0,.279,0,.141,0,.141,0,.285,0,.3,0,.6,0,.905,0,.2,0,.409,0,.612,0,.5,0,1.007,0,1.5-1.411.108-2.823.113-4.244.112H2.874c-1.342,0-2.665-.024-4-.113v3.158H14.47v4.639H-6.847c0-3.188,0-6.376-.006-9.662,0-1.007,0-2.013,0-3.059,0-1.224,0-1.224,0-1.8,0-.4,0-.805,0-1.2V2.193c0-.189,0-.378,0-.566V.866c0-.075,0-.15,0-.227,0-.631.051-.629.677-.631Z" transform="translate(116.88 1.014)" fill="#060203"/>
    <path id="Path_47" data-name="Path 47" d="M-5.525,0H8.718c2.191,0,4.382.012,6.583.112,0,.617,0,1.234.006,1.855q0,.314,0,.63c0,.3,0,.6,0,.9,0,.095,0,.189,0,.286v.5c-.012.177-.012.177-.111.275-.2.01-.4.013-.6.012H10.765l-2.467,0-2.8,0c-1.925,0-3.849,0-5.783,0V7.416l14.8.1v4.046c-.176.176-.431.113-.669.114l-.375,0-.415,0-.434,0-1.184.007L10.2,11.7l-2.339.014L5.2,11.727l-5.487.032-.1,3.059H1.055l4.7,0,2.842,0,2.477,0h3.97c.257.012.257.012.355.111v4.54H-6.117c0-3.188,0-6.376-.006-9.662,0-1.007,0-2.013,0-3.059v-1.8c0-.4,0-.805,0-1.2q0-.77,0-1.54c0-.189,0-.377,0-.566V.867c0-.074,0-.149,0-.227,0-.579.011-.629.594-.631Z" transform="translate(114.742 25.901)" fill="#060203"/>
    <path id="Path_48" data-name="Path 48" d="M-144.7-2.126l.355,0c5.448.083,5.448.083,7.007,1.52a4.393,4.393,0,0,1,.8,1.313c.05.111.1.222.152.337a6.072,6.072,0,0,1,.262,1.786c.008.116.016.234.024.354a17.283,17.283,0,0,1,.056,1.767c-.171.171-.4.116-.634.12l-.346.007-.377.006-.384.007-.805.014-1.036.018-.983.017-.377.007-.346.006-.307,0c-.228-.009-.228-.009-.327-.108-.038-.205-.069-.411-.1-.617-.056-.39-.116-.775-.2-1.165a6.468,6.468,0,0,0-1.994-.414l-.344-.024c-1.322-.077-2.645-.078-3.977-.081l-.34,0a21.368,21.368,0,0,0-4.7.323v.2c-.076.071-.151.142-.228.216a3.71,3.71,0,0,0-.8,2.566c0,.075,0,.149-.007.226-.007.24-.012.48-.017.719,0,.081,0,.163-.006.248a7.884,7.884,0,0,0,.617,4.9c1.076,1.036,2.823.816,4.194.814h3.952a6.653,6.653,0,0,0,3.652-.506,2.217,2.217,0,0,0,.512-1.461c.071-.8.071-.8.179-.907.178-.01.356-.013.535-.013h4.962c.229.013.229.013.328.112.011.236.016.469.017.706,0,.071,0,.143,0,.217v.459c0,.23,0,.46,0,.69a5.7,5.7,0,0,1-1.2,4.046c-.069.087-.139.175-.21.265-2.388,1.925-6.908,1.362-9.771,1.352-.562,0-1.125,0-1.688,0-2.043,0-4.086,0-6.119-.159l-.209-.015a6.581,6.581,0,0,1-4.451-1.678,6.292,6.292,0,0,1-.752-1.352l-.1-.215a4.451,4.451,0,0,1-.208-1.017c-.009-.073-.017-.146-.026-.221a25.617,25.617,0,0,1-.085-2.763V9.921q0-.6,0-1.2c0-.51,0-1.017,0-1.53q0-.6,0-1.194c0-.188,0-.376,0-.564,0-4.421,0-4.421,1.4-5.931a4.351,4.351,0,0,1,1.086-.666l.266-.149c3.612-1.638,9.247-.868,13.126-.807Z" transform="translate(212.865 27.727)" fill="#060203"/>
    <path id="Path_49" data-name="Path 49" d="M-162.646-.789l.268.012c1.757.079,3.494.227,4.875,1.441a.354.354,0,0,1,.12.34l.3.1a5.927,5.927,0,0,1,.867,3.474q0,.312.014.625c.017.713.017.713.008,1.026-.1.1-.1.1-.329.112h-.654l-.378,0h-.385l-1.017,0-1.036,0c-.676,0-1.352,0-2.033,0q-.009-.1-.018-.2c-.008-.089-.016-.177-.024-.267s-.015-.174-.023-.264a1.829,1.829,0,0,0-.627-1.244,2.28,2.28,0,0,0-.543-.111l-.287-.044-.354-.042-.209-.025c-.982-.1-1.974-.113-2.961-.135l-.292-.007c-3.385-.313-3.385-.313-6.415.66-.944,1.263-.824,3.059-.821,4.56q0,.432,0,.865a5.123,5.123,0,0,0,.629,3.267v.2a8.342,8.342,0,0,0,.906.4l.263.1a10.08,10.08,0,0,0,2.793.2h1.436l1.234,0h.959l.455,0a5.654,5.654,0,0,0,3.671-.739,3.58,3.58,0,0,0,.512-2.151,2.147,2.147,0,0,1,.826-.1l.328,0,.354.007.363.007.76.014,1.165.021.737.014.355.006.327.007.289.006c.216.016.216.016.315.114.013.263.021.523.023.786,0,.08,0,.16,0,.243,0,.17,0,.34,0,.511q0,.385.011.77a5.366,5.366,0,0,1-.928,3.513h-.2c-.023.057-.045.114-.068.174a3.774,3.774,0,0,1-2.428,1.313,11,11,0,0,1-1.619.262l-.374.037c-1.924.17-3.859.133-5.783.128-.571,0-1.145,0-1.717,0-8.261.021-8.261.021-10.067-1.648a6.032,6.032,0,0,1-1.036-2.043l-.082-.229a11.081,11.081,0,0,1-.258-3.237c0-.221,0-.443,0-.665,0-.464,0-.929,0-1.392,0-.59,0-1.184,0-1.767,0-.458,0-.917,0-1.372q0-.326,0-.651c-.009-1.875.066-3.79,1.332-5.29h.2c.033-.1.064-.2.1-.3a1.75,1.75,0,0,1,.395-.1v-.2a7.4,7.4,0,0,1,1.984-.715l.218-.049A16.873,16.873,0,0,1-173.3-.731l.371-.013,1.184-.039.2-.006c2.961-.1,5.9-.133,8.853,0Z" transform="translate(262.981 1.607)" fill="#060203"/>
    <path id="Path_50" data-name="Path 50" d="M-116.549-.064c1.559-.028,3.109.031,4.658.094l.3.012c1.8.071,3.681.148,5.122,1.382,1.165,1.322,1.273,2.921,1.342,4.589,0,.1.01.2.015.3s.009.187.014.283l.012.257c0,.2,0,.2-.1.3-.178.009-.356.012-.535.012h-4.962c-.229-.012-.229-.012-.328-.111-.008-.186-.014-.37-.019-.556a1.61,1.61,0,0,0-.476-1.194c-.97-.619-2.7-.439-3.819-.477l-.369-.012c-.907-.03-1.816-.05-2.724-.031l-.287,0a6.158,6.158,0,0,0-4.125.792,5.8,5.8,0,0,0-.642,3.385c0,.1,0,.207,0,.314v.653c0,.331,0,.661,0,.987,0,.212,0,.425,0,.638,0,.1,0,.2,0,.3a3.375,3.375,0,0,0,.827,2.615c1.115.7,2.556.59,3.819.59h1.395l1.2,0h.933l.442,0a12.16,12.16,0,0,0,2.556-.221l.23-.043a1.723,1.723,0,0,0,1.056-.549,3.84,3.84,0,0,0,.3-2.073,1.392,1.392,0,0,1,.725-.112h4.778c.22.013.22.013.319.112.279,1.678.355,4.046-.592,5.527-.054.1-.11.2-.167.308l-.129.186h-.2c-.025.058-.048.117-.074.179a3.086,3.086,0,0,1-1.885,1.076,32.416,32.416,0,0,1-8.231.568c-.45,0-.9,0-1.352,0A56.026,56.026,0,0,1-124,19.8l-.216-.024a5.972,5.972,0,0,1-3.918-1.609,6.248,6.248,0,0,1-.753-1.352c-.048-.106-.048-.106-.1-.213a4.642,4.642,0,0,1-.208-1.066c-.008-.078-.016-.155-.025-.235a28.2,28.2,0,0,1-.089-2.842q0-.295,0-.589,0-.614,0-1.224c0-.518,0-1.036,0-1.559V7.873c0-.191,0-.382,0-.573a27.735,27.735,0,0,1,.113-2.852c.007-.076.015-.153.023-.231a4.642,4.642,0,0,1,1.717-3.02A9.8,9.8,0,0,1-122.533.1l.313-.013c1.875-.067,3.76-.106,5.645-.143Z" transform="translate(184.809 0.788)" fill="#060203"/>
    <path id="Path_51" data-name="Path 51" d="M-218.316-.117a.764.764,0,0,1-.311.593l-.275.208a13.361,13.361,0,0,0-1.392,1.283c-.2.185-.2.185-.395.185-.021.055-.04.11-.061.167a2.088,2.088,0,0,1-.572.586,2.978,2.978,0,0,0-.415.456.8.8,0,0,1-.63.37l-.1.3a3.636,3.636,0,0,1-.35.317c-.5.424-.976.875-1.451,1.322-.343.324-.689.631-1.056.922l-.253.259a1.2,1.2,0,0,1-.457.34c-.193.078-.193.078-.265.271a1.748,1.748,0,0,1-.548.583,2.634,2.634,0,0,0-.4.367c-.247.247-.5.471-.771.694-.2.174-.383.358-.567.546.484.389.968.777,1.461,1.155a8.494,8.494,0,0,1,.907.82l.228.167.167.129v.2l.173.08a3.209,3.209,0,0,1,.617.414v.2l.178.079a1.953,1.953,0,0,1,.538.439,6.51,6.51,0,0,0,.963.809,7.476,7.476,0,0,1,.69.646c.218.2.442.389.666.58l.184.157c.338.287.678.564,1.026.83a5.29,5.29,0,0,1,.882.9c.206.163.417.315.635.464l.155.128v.2l.176.08a3.651,3.651,0,0,1,.734.567.975.975,0,0,0,.382.241c.189.1.189.1.386.395v.3c-1.066,0-2.142-.006-3.217-.013-.5,0-1-.006-1.49-.007s-.959,0-1.441-.007c-.183,0-.366,0-.549,0-.257,0-.513,0-.77,0l-.228,0c-.808-.018-1.145-.514-1.688-1.056q-.172-.15-.345-.3a9.063,9.063,0,0,1-.839-.79v-.2l-.171-.073a2.623,2.623,0,0,1-.643-.538c-.334-.341-.675-.662-1.036-.973-.331-.288-.651-.586-.972-.884-.246-.226-.493-.446-.751-.659-.273-.227-.516-.47-.768-.721q-.315-.271-.635-.538l-.155-.153v-.2l-.179-.087a3.514,3.514,0,0,1-.512-.308,3.645,3.645,0,0,0-.634-.02l-.375,0-.392.006-.395,0-.968.01a1.778,1.778,0,0,0-.11.881v.213c0,.233,0,.465,0,.7,0,.162,0,.323,0,.485q0,.637,0,1.273c0,.509,0,1.017,0,1.53,0,.775,0,1.549,0,2.319l-5.428.1c-.062-1.313-.113-2.605-.11-3.908v-.517q0-.691,0-1.382,0-.727,0-1.451c0-.914,0-1.826,0-2.744,0-1.036,0-2.082,0-3.119,0-2.142,0-4.273,0-6.415h5.428a7.014,7.014,0,0,1,.11,1.244V1.71c0,.138,0,.277,0,.415s0,.286,0,.429q0,.563,0,1.125c0,.383,0,.767,0,1.145q0,1.125,0,2.25.639.018,1.283.027c.145,0,.29.006.435.011.209.006.417.009.627.011l.381.008c.536-.09.736-.434,1.066-.84a5.384,5.384,0,0,1,.783-.746A2.031,2.031,0,0,0-231.7,5.1a5.636,5.636,0,0,1,.771-.74,2.031,2.031,0,0,0,.414-.444,4.251,4.251,0,0,1,.592-.592,5.91,5.91,0,0,0,.839-.888,6.082,6.082,0,0,1,.493-.493h.2l.2-.395h.2l.2-.395h.2l.074-.173a2.175,2.175,0,0,1,.518-.617h.2l.1-.3a2.059,2.059,0,0,1,.95-.119l.236,0,.772-.008.536-.006,1.411-.015,1.441-.016,2.092-.023.223,0c.505,0,.505,0,.727,0Z" transform="translate(323.092 25.817)" fill="#060203"/>
    <path id="Path_52" data-name="Path 52" d="M-5.633-.1l.328,0h1.481c.391,0,.781,0,1.174,0h.739l.355,0h.619c.229.025.229.025.426.222A3.811,3.811,0,0,1-.487.676c0,.119,0,.239,0,.362l0,.4v.419l0,.9q0,.715,0,1.431c0,.753,0,1.51,0,2.26,0,1.352-.008,2.7-.01,4.046q0,.712,0,1.421l0,.883c0,.136,0,.273,0,.411,0,.187,0,.372,0,.559,0,.157,0,.157,0,.317-.015.229-.015.229.111.333.165.009.33.012.5.012H3.237l2.023,0,2.309,0,4.747,0,.1,4.935H-6.237c0-4.846,0-4.846,0-6.869q0-2.1,0-4.2c0-1.017,0-2.043,0-3.059,0-.54,0-1.086,0-1.619,0-.508,0-1.017,0-1.52,0-.187,0-.374,0-.561V.763c0-.075,0-.15,0-.228,0-.6.029-.63.618-.632Z" transform="translate(7.187 25.997)" fill="#060203"/>
    <path id="Path_53" data-name="Path 53" d="M0,0H3.75a3.348,3.348,0,0,1,.543,1.1c.276.812.586,1.609.907,2.408.046.118.094.237.142.359l.136.338c.04.1.081.2.121.3.114.268.114.268.42.438.038-.118.077-.236.117-.357.138-.415.28-.828.425-1.244L6.683,3a9.932,9.932,0,0,1,.422-.921c.124-.314.241-.63.357-.946C7.619.744,7.809.374,7.994,0h3.652V7.7H9.869c-.1-.1-.1-.1-.11-.319,0-.146,0-.146,0-.3,0-.111,0-.22,0-.334s0-.24,0-.363q0-.376,0-.752,0-.6.009-1.194c0-.382,0-.764.006-1.145,0-.119,0-.239,0-.362s0-.221,0-.335c0-.1,0-.194,0-.3,0-.252,0-.252-.22-.43a1.124,1.124,0,0,0-.395.592h-.2l-.051.182A14.7,14.7,0,0,1,7.874,5.277C7.6,5.809,7.356,6.353,7.1,6.9l-.111.237c-.034.07-.066.141-.1.213a.678.678,0,0,1-.182.264c-.221.037-.443.064-.666.087l-.368.041a.821.821,0,0,1-.61-.217,6.014,6.014,0,0,1-.687-1.244q-.114-.249-.226-.5l-.107-.234a7.879,7.879,0,0,0-.4-.7c-.074-.189-.147-.378-.216-.568a10.43,10.43,0,0,0-1.066-2.29l-.395.1c.007.066.014.131.022.2A18.9,18.9,0,0,1,2.082,4.25c0,.1,0,.193,0,.294q0,.457,0,.917c0,.209,0,.417,0,.627,0,.508,0,1.017,0,1.53A5.627,5.627,0,0,1,0,7.617V0Z" transform="translate(146.029 50.274)" fill="#ed2027"/>
    <path id="Path_54" data-name="Path 54" d="M-57.1-.069l.3,0q.462.007.924.021l.286,0a2.192,2.192,0,0,1,1.619.62,5,5,0,0,1,.548,3.059c0,.238,0,.475,0,.713,0,2.112,0,2.112-.508,2.734l-.147.189c-.668.651-1.9.468-2.773.466h-1.96q-.919,0-1.836-.014l-.255,0q-.33-.007-.66-.022l-.358-.014a1.555,1.555,0,0,1-1.017-.744,6.924,6.924,0,0,1-.408-3.168c0-.222,0-.444,0-.666A3.989,3.989,0,0,1-62.721.523,1.867,1.867,0,0,1-61.28,0l.328-.012.351-.012.362-.013c1.046-.034,2.092-.048,3.148-.031ZM-61.046,2.2A5.553,5.553,0,0,0-61.182,5c.012.1.024.2.036.3.08.276.08.276.345.418a3.159,3.159,0,0,0,1.263.174h.265l.553,0c.28,0,.56,0,.84,0h.539l.252,0a2.606,2.606,0,0,0,1.372-.338A5.107,5.107,0,0,0-55.6,3.94c0-.182,0-.182,0-.368,0-.117,0-.235,0-.355s0-.214,0-.325a1.734,1.734,0,0,0-.221-.79,1.4,1.4,0,0,0-.83-.224l-.259,0h-1.165c-.3,0-.611,0-.917,0h-.583l-.276,0a1.647,1.647,0,0,0-1.2.335Z" transform="translate(132.661 50.245)" fill="#060203"/>
    <path id="Path_55" data-name="Path 55" d="M-61.479-.146-61-.138q.339.006.678.017l.391.009A1.884,1.884,0,0,1-58.644.7a4.994,4.994,0,0,1,.484,2.832c0,.234,0,.467,0,.7.01,2.181.01,2.181-.7,2.921-1,.741-2.635.491-3.849.488h-.824c-.531,0-1.066,0-1.589-.014l-.257,0q-.364-.007-.728-.021l-.216,0a1.75,1.75,0,0,1-1.165-.464c-.925-1.184-.72-2.911-.691-4.342,0-.117,0-.235,0-.356A3.086,3.086,0,0,1-67.428.358a3.329,3.329,0,0,1,2.309-.487l.22-.007c1.145-.032,2.28-.036,3.425-.011Zm-4.333,2.151a4.368,4.368,0,0,0-.228,1.776c0,.095,0,.189,0,.287a2.63,2.63,0,0,0,.332,1.49,1.341,1.341,0,0,0,.8.225l.239,0h.256l.265,0h.556c.281,0,.564,0,.846,0h.541l.254,0a2.643,2.643,0,0,0,1.372-.335,3.679,3.679,0,0,0,.263-2.408,2.612,2.612,0,0,0-.46-1.145,1.163,1.163,0,0,0-.621-.113l-.265,0h-1.2c-.316,0-.632,0-.947,0h-.6l-.286,0h-.5a1.249,1.249,0,0,0-.61.221Z" transform="translate(78.418 50.322)" fill="#060203"/>
    <path id="Path_56" data-name="Path 56" d="M-65.488-.257l.324.007a2.257,2.257,0,0,1,1.727.61,4.625,4.625,0,0,1,.568,2.931c0,.249,0,.5,0,.747A4.422,4.422,0,0,1-63.7,7.216c-.839.56-2.339.311-3.326.309h-.854c-.548,0-1.1,0-1.638-.013l-.259,0c-.241,0-.483-.013-.724-.022l-.213,0a2.243,2.243,0,0,1-1.273-.464c-.943-1.056-.635-3.474-.567-4.8a3.237,3.237,0,0,1,.8-2.132,2.14,2.14,0,0,1,1.313-.309l.194-.006.409-.013c.2,0,.409-.012.613-.019,1.244-.038,2.5-.039,3.74,0Zm-4.826,2.24a4.635,4.635,0,0,0-.123,1.668c0,.117,0,.234-.006.353s0,.225,0,.34,0,.205,0,.311a1.442,1.442,0,0,0,.331.779,1.823,1.823,0,0,0,1.165.227h.8c.276,0,.552,0,.828,0h.528l.249,0a2.606,2.606,0,0,0,1.362-.335,3.3,3.3,0,0,0,.229-1.668c0-.095,0-.19,0-.288a2.613,2.613,0,0,0-.332-1.49,1.364,1.364,0,0,0-.823-.225l-.253,0h-.271l-.281,0H-67.5c-.3,0-.6,0-.9,0h-.57l-.271,0a1.2,1.2,0,0,0-1.076.335Z" transform="translate(207.866 50.433)" fill="#ed2027"/>
    <path id="Path_57" data-name="Path 57" d="M-18.4-.117l.352,0h.377l.391,0h.816c.348,0,.7,0,1.046,0,.334,0,.667,0,1,0l.376,0a2.382,2.382,0,0,1,1.875.644,4.075,4.075,0,0,1,.469,1.48c-.048.147-.048.147-.1.3-1.816.028-1.816.028-2.27-.2V1.7l-1.678,0-.57,0-.818,0-.259,0a1.693,1.693,0,0,0-.822.11c.015.128.029.257.043.389.008.072.016.144.025.219.013.184.013.184.129.28.29.021.578.036.868.046l.547.024.861.034c3.069.122,3.069.122,3.74.587a2.324,2.324,0,0,1,.414,1.767c0,.087,0,.175,0,.264A2.79,2.79,0,0,1-12.2,7.322a3.694,3.694,0,0,1-2.112.31h-1.637c-.843,0-1.688-.009-2.527-.053l-.205-.01A2.127,2.127,0,0,1-20,7.125a3.1,3.1,0,0,1-.4-1.648c0-.12,0-.12,0-.243,0-.092,0-.092,0-.186.286,0,.571.01.858.019l.244,0a1.329,1.329,0,0,1,.979.318c.189.254.189.254.189.451h4.342V4.752a9.659,9.659,0,0,0-1.451-.144l-.5-.024-.786-.035C-19.4,4.427-19.4,4.427-20,3.963a3.538,3.538,0,0,1-.3-.79c-.018-.065-.036-.13-.054-.2A4.19,4.19,0,0,1-20,.607h.2c.021-.058.04-.117.062-.179a1.416,1.416,0,0,1,1.322-.552Z" transform="translate(20.841 50.392)" fill="#060203"/>
    <path id="Path_58" data-name="Path 58" d="M-.072-.225,3.747-.237l1.2-.006h.715l.476,0c.241,0,.482,0,.722,0l.213,0A1.56,1.56,0,0,1,8.291.14l.146.2.15.192a3.906,3.906,0,0,1,.239,1.816c0,.076,0,.152,0,.23A3.576,3.576,0,0,1,8.61,3.927a1.771,1.771,0,0,1-.493.3c.049.342.049.342.1.691l.191.038.2.061a1.307,1.307,0,0,1,.109.692c0,.146,0,.146,0,.3s0,.152,0,.308c0,.1,0,.206,0,.312,0,.254,0,.508,0,.762a5.63,5.63,0,0,1-1.263.111l-.2,0c-.5,0-.5,0-.61-.113l-.1-1.875H1.993V7.381l-.1.1H-.08v-7.7ZM2,1.65V3.624l1.934,0,.658,0,.944,0h.818c.186.009.186.009.283-.111.009-.132.011-.265.01-.4,0-.079,0-.159,0-.242s0-.168,0-.254,0-.169,0-.256c0-.209,0-.417,0-.627C5.09,1.65,3.55,1.639,2,1.65Z" transform="translate(51.061 50.5)" fill="#060203"/>
    <path id="Path_59" data-name="Path 59" d="M0,0H7.9V1.776c-.1.1-.1.1-.324.111H6.178l-1,0-1.017,0-1.994,0v.987H7.7V4.54l-5.527.1V5.823l5.823.1c.048.83.048.83.1,1.678H0V0Z" transform="translate(101.322 50.274)" fill="#060203"/>
    <path id="Path_60" data-name="Path 60" d="M-5.615,0h.456l.768,0h.53l1.4,0,1.431,0,2.8,0V1.788A8.187,8.187,0,0,1,.53,1.9H.22l-.33,0H-.453l-1.076,0-.732,0c-.6,0-1.194,0-1.786,0v.987l.485,0,1.776-.008.769,0,1.105,0,.349,0H.76l.285,0c.238.024.238.024.534.221l-.1,1.48-5.527.1V5.835l5.922.1V7.611H-6.217c0-1.234,0-2.467-.006-3.74,0-.391,0-.782,0-1.184,0-.476,0-.476,0-.7,0-.156,0-.312,0-.468,0-.236,0-.472,0-.708,0-.069,0-.139,0-.211,0-.583.044-.6.625-.6Z" transform="translate(48.017 50.274)" fill="#060203"/>
    <path id="Path_61" data-name="Path 61" d="M-.937-.216c.9,0,1.806-.008,2.714-.01l1.263,0,1.214,0,.463,0c.216,0,.433,0,.649,0h.373a1.56,1.56,0,0,1,1.2.505,4.391,4.391,0,0,1,.419,2.576c0,.088,0,.176,0,.266-.026.643-.026.643-.235.87a2.415,2.415,0,0,1-.454.245.93.93,0,0,0,.348.74A1.815,1.815,0,0,1,7.3,6.374c0,.1,0,.19,0,.289-.015.7-.015.7-.131.815-.131.01-.264.013-.395.013H6.53l-.253,0-.253,0H5.562c-.173-.013-.173-.013-.271-.112L5.191,5.5H1.046a2.18,2.18,0,0,0-.1,1.046c0,.278,0,.555,0,.833-.1.1-.1.1-.273.11H.208l-.254,0H-.3l-.627,0a25.73,25.73,0,0,1-.112-2.675c0-.139,0-.279,0-.418,0-.289,0-.579,0-.868,0-.371,0-.742,0-1.115,0-.287,0-.573,0-.861,0-.137,0-.273,0-.411,0-.19,0-.381,0-.571V.236A.762.762,0,0,1-.928-.217ZM.938,1.758c-.009.14-.011.28-.01.419,0,.085,0,.169,0,.256s0,.178,0,.268,0,.179,0,.269c0,.221,0,.441,0,.662.586,0,1.174.009,1.757.011l.6,0c.287,0,.573,0,.861,0l.271,0H4.9c.205-.008.205-.008.378-.221.015-.287.019-.565.012-.851,0-.08,0-.159,0-.24q0-.295-.01-.587c-1.017-.08-2.033-.11-3.059-.111l-.348,0H1.254c-.217-.012-.217-.012-.319.112Z" transform="translate(111.437 50.491)" fill="#060203"/>
    <path id="Path_62" data-name="Path 62" d="M-64.12-.347l.22.009A1.766,1.766,0,0,1-62.528.2a3.071,3.071,0,0,1,.58,2.181c-1.638.239-1.638.239-2.27-.1a5.2,5.2,0,0,1-.2-.592c-.585-.012-1.165-.021-1.757-.027-.2,0-.4-.006-.6-.01-.286-.006-.571-.009-.858-.011l-.27-.008a2.886,2.886,0,0,0-.665.055,1.276,1.276,0,0,0-.35.892c0,.073-.008.146-.012.222s0,.152-.008.231-.007.157-.01.239a2.9,2.9,0,0,0,.38,2.171,2.021,2.021,0,0,0,.692.119l.24.006.257,0,.264.006.836.019.566.013c.463.011.926.021,1.392.03.013-.077.027-.154.039-.234.027-.149.027-.149.053-.3l.051-.3c.053-.248.053-.248.152-.346.154-.008.309-.01.463-.009h.282l.3,0,.3,0,.732,0c.1,1.767.1,1.767-.265,2.26a2.884,2.884,0,0,1-.327.3l-.216.191a8.673,8.673,0,0,1-2.99.217h-.749c-.817,0-1.638-.012-2.448-.05l-.22-.009a2.153,2.153,0,0,1-1.471-.547,3.408,3.408,0,0,1-.506-2.349c0-.081,0-.161,0-.244,0-.17,0-.339,0-.507,0-.257,0-.514,0-.771,0-.166,0-.331,0-.5,0-.114,0-.114,0-.23A2.63,2.63,0,0,1-70.534.216a2.375,2.375,0,0,1,1.559-.524l.273-.013.291-.012.3-.012c1.332-.051,2.655-.057,3.987.006Z" transform="translate(92.409 50.523)" fill="#060203"/>
    <path id="Path_63" data-name="Path 63" d="M-22.188-.27l.364,0,.39,0h.2l1.046,0c.359,0,.718,0,1.076-.008q.417,0,.834,0l.59-.006A2.362,2.362,0,0,1-16,.142a2.185,2.185,0,0,1,.505,1.589c0,.187,0,.187,0,.377-.013.3-.013.3-.112.4-.274.012-.546.018-.82.018l-.232,0c-.732,0-.732,0-1.017-.219a3.762,3.762,0,0,1-.1-.493,2.391,2.391,0,0,0-1.1-.115H-19.7c-.289,0-.578,0-.868,0h-.549l-.264,0a.933.933,0,0,0-.831.223A10.292,10.292,0,0,0-22.331,3.7l0,.257a3.3,3.3,0,0,0,.22,1.411,2.531,2.531,0,0,0,1.4.216h.264l.829-.006.564,0,1.382-.009c.006-.07.012-.14.018-.213.013-.135.013-.135.026-.274l.024-.274c.032-.225.032-.225.13-.324.153-.01.306-.013.459-.014h1.413c.2.013.2.013.3.112a3.58,3.58,0,0,1-.488,2.369c-.783.759-2.23.508-3.247.506h-.77c-.507,0-1.017,0-1.52-.013l-.26,0c-.252,0-.5-.013-.756-.022l-.227,0a2.576,2.576,0,0,1-1.421-.464c-.728-.92-.622-2.25-.611-3.365V3.2c.011-2.23.011-2.23.587-2.842a2.253,2.253,0,0,1,1.826-.621Z" transform="translate(104.856 50.545)" fill="#060203"/>
    <path id="Path_64" data-name="Path 64" d="M-75.041-2.29v.2l.173.055a1.742,1.742,0,0,1,.708,1.184q.11.514.205,1.026a.955.955,0,0,1-.728.22h-.251l-.261,0h-.263c-.641,0-.641,0-.867-.117-.072-.228-.138-.459-.2-.691-.586,0-1.174-.009-1.757-.011l-.6,0c-.287,0-.573,0-.861,0l-.271,0h-.474c-.205.008-.205.008-.378.221A5.273,5.273,0,0,0-80.984,1.5c0,.121,0,.242-.006.367s0,.234,0,.354,0,.213,0,.323a1.342,1.342,0,0,0,.332.788,3.8,3.8,0,0,0,1.224.115h.747l.773,0h.491l.234,0a1.272,1.272,0,0,0,.876-.222,1.719,1.719,0,0,0,.117-.456c.016-.081.031-.162.047-.245s.016-.093.033-.188l1.026-.006.3,0h.544c.2.011.2.011.3.11a3.1,3.1,0,0,1-.493,2.369c-.906.758-2.448.509-3.563.506h-.774c-3.138,0-3.138,0-3.849-.507-.757-.985-.611-2.339-.617-3.523,0-.12,0-.241,0-.365.007-2.013.007-2.013.447-2.576a3.437,3.437,0,0,1,2.675-.8l.209-.007c3.9-.12,3.9-.12,4.885.167Z" transform="translate(207.845 52.663)" fill="#ed2027"/>
    <path id="Path_65" data-name="Path 65" d="M-21.7-.189l.372,0h.4l.413,0,.866,0c.368,0,.737,0,1.105-.006.284,0,.568,0,.853,0l.408,0h.9a1.947,1.947,0,0,1,1.253.8,2.793,2.793,0,0,1,.226,2c-.325.006-.649.009-.974.013l-.28,0-.268,0-.247,0c-.2-.023-.2-.023-.4-.22q-.105-.293-.2-.592c-.586-.007-1.174-.013-1.757-.016l-.6-.007-.861-.006-.271,0h-.252l-.221,0-.182.036a3.358,3.358,0,0,0-.315,1.974c0,.16,0,.16,0,.323,0,.1,0,.206,0,.313,0,.14,0,.14,0,.283a1.663,1.663,0,0,0,.221.759,2.423,2.423,0,0,0,1.4.217h.264l.829-.006.565,0c.46,0,.919-.006,1.382-.01l.2-1.086h2.171a3.534,3.534,0,0,1-.6,2.625c-.788.584-2.26.355-3.2.352h-.745q-.74,0-1.48-.014l-.257,0c-.252,0-.5-.013-.755-.022l-.228,0a2.589,2.589,0,0,1-1.421-.464c-1.026-1.184-.63-3.819-.538-5.29A2.331,2.331,0,0,1-23.293.324a2.258,2.258,0,0,1,1.6-.509Z" transform="translate(55.422 50.464)" fill="#060203"/>
    <path id="Path_66" data-name="Path 66" d="M-82.97,0l-.1.395h-.2v.2c-.135.092-.271.183-.41.27A5.373,5.373,0,0,0-84.9,1.988a3.36,3.36,0,0,1-.764.65,2.281,2.281,0,0,0-.426.429,3.773,3.773,0,0,1-.728.685.725.725,0,0,0,.242.524l.178.112a5.3,5.3,0,0,1,.864.746c.293.266.59.528.888.79l.2.18A13.556,13.556,0,0,0-83.152,7.12a1.591,1.591,0,0,1,.383.777c-.439-.011-.878-.027-1.313-.046-.149-.006-.3-.011-.448-.015-1.244-.032-1.244-.032-1.619-.287a3.694,3.694,0,0,1-.372-.54c-.124-.118-.251-.235-.383-.345l-.2-.171-.433-.365-.218-.186-.2-.169c-.145-.146-.145-.146-.145-.343l-.174-.083a5.679,5.679,0,0,1-.6-.373,1.292,1.292,0,0,0-1-.235,14.16,14.16,0,0,0-.1,1.984c0,.095,0,.189,0,.287q0,.348,0,.694a3.368,3.368,0,0,1-1.145.111l-.237,0c-.577,0-.577,0-.689-.113-.009-.237-.013-.472-.011-.709V6.769c0-.246,0-.492,0-.738,0-.171,0-.34,0-.511q0-.674,0-1.342,0-.687,0-1.372,0-1.349,0-2.694l.981-.006.282,0h.518c.192.011.192.011.291.11.009.2.011.41.01.614,0,.124,0,.249,0,.377l0,.4c0,.133,0,.265,0,.4q0,.489,0,.977a1.919,1.919,0,0,0,1.52-.429c.133-.138.263-.279.39-.421l.2-.21c.3-.32.589-.648.873-.983l.147-.168a2.933,2.933,0,0,0,.33-.442A2.729,2.729,0,0,1-84.835.032l.38-.008c.5-.009,1-.012,1.5-.011Z" transform="translate(182.811 50.176)" fill="#060203"/>
    <path id="Path_67" data-name="Path 67" d="M-.126-.1.949-.105l.311,0h.57c.21.011.21.011.309.11.009.172.011.344.01.517,0,.111,0,.22,0,.335s0,.24,0,.363,0,.245,0,.371c0,.459,0,.919-.006,1.382s0,.9,0,1.352c0,.119,0,.24,0,.363s0,.221,0,.335c0,.1,0,.2,0,.3-.014.218-.014.218.11.32.155.009.31.012.464.011h.956l1.056,0h.713l1.747,0a11.893,11.893,0,0,1,.1,1.875h-7.3a9.351,9.351,0,0,1-.11-1.4V5.9c0-.221,0-.441,0-.662,0-.154,0-.307,0-.461,0-.4,0-.806,0-1.214s0-.824,0-1.234c0-.807,0-1.619,0-2.418Z" transform="translate(61.181 50.374)" fill="#060203"/>
    <path id="Path_68" data-name="Path 68" d="M0,0H2.27V2.073l-.746.012-.231.006-.189,0-.189,0A5.335,5.335,0,0,1,0,1.875V0Z" transform="translate(120.567 55.9)" fill="#ed2027"/>
  </g>
</svg>
