<?xml version="1.0" encoding="utf-8"?>
<!-- Generator: Adobe Illustrator 24.0.3, SVG Export Plug-In . SVG Version: 6.00 Build 0)  -->
<svg version="1.1" id="Layer_1" xmlns="http://www.w3.org/2000/svg" xmlns:xlink="http://www.w3.org/1999/xlink" x="0px" y="0px"
	 viewBox="0 0 324 144" style="enable-background:new 0 0 324 144;" xml:space="preserve">
<style type="text/css">
	.st0{fill-rule:evenodd;clip-rule:evenodd;}
	.st1{fill:#EC1C24;}
</style>
<g>
	<g>
		<path class="st0" d="M185.9,45h18.6c11.6,0,13.8-5,13.8-11.3v-3.5h-11.5c0,4.7-1.6,5.1-6.8,5.1h-12.3c-5.4,0-6.6-2-6.6-7.4v-4.1
			c0-4.7,1.2-7.5,7.2-7.5h12.5c3.5,0,5.4,0.8,5.4,3.5v1.1h11.6c0.1-10.6-2-14.2-18.5-14.2h-13.5c-10.4,0-16.7,2.7-16.7,13.7v11.1
			C169.2,42.4,175.5,45,185.9,45z M285.6,34.9h11.6h6.5c3.6,0,4.8,1.3,4.8,5.2v4.6H320v-6.5c0-6.2-2.9-7.6-6.3-8.3v-0.1
			c5.3-1.3,6.5-4.1,6.5-9.2v-2.3c0-6.8-2.4-11.3-11.3-11.3h-11.7H274v37.7h11.6V34.9z M285.6,16.3h11.6h6.4c3.6,0,5.3,0.6,5.3,4v1.2
			c0,2.8-1.2,4-4.2,4h-7.4h-11.6L285.6,16.3L285.6,16.3z M108.1,20.3c0-11-6.2-13.7-16.6-13.7h-9.2h-9.2c-10.4,0-16.6,2.7-16.6,13.7
			v11.1c0,11,6.2,13.6,16.6,13.6h9.2h9.2c10.4,0,16.6-2.5,16.6-13.6V20.3z M96.3,27.9c0,5.4-1.2,7.4-6.6,7.4h-7.4H75
			c-5.5,0-6.6-2-6.6-7.4v-4.1c0-4.7,1.1-7.5,7.2-7.5h6.7h6.8c6.1,0,7.2,2.9,7.2,7.5C96.3,23.8,96.3,27.9,96.3,27.9z M236.7,29.6h28
			v-7.9h-28v-5.9h29.6V7h-41.1v37.7H267v-9.1h-30.2v-6H236.7z M145,35.3h-12.3c-5.5,0-6.6-2-6.6-7.4v-4.1c0-4.7,1.1-7.5,7.2-7.5
			h12.5c3.4,0,5.4,0.8,5.4,3.5v1.1h11.4c0.1-10.6-1.9-14.2-18.3-14.2h-13.6c-10.4,0-16.6,2.7-16.6,13.7v11.1
			c0,11,6.2,13.6,16.6,13.6h18.6c11.6,0,13.8-5,13.8-11.3v-3.5h-11.5C151.7,34.9,150.2,35.3,145,35.3z M17.5,45h13.9
			c15.4,0,18.8-1.6,18.8-11.8c0-10.9-4.1-12-22.1-12c-12.3,0.1-13.7,0-13.7-3.3c0-2,1.7-2.9,4.4-2.9h12.7c5.3,0,5.6,1.1,5.6,3.8
			h11.5v-1.2c0-6.6-1.2-11.1-14.5-11.1h-16C3.5,6.6,2.9,11.9,2.9,18.7c0,9.2,2,11.4,19.3,11.4c14.9,0,16.2,0.2,16.2,3.4
			c0,3-2.5,3.2-5,3.2H19.3c-3.3,0-4.9-0.3-5-4.2H2.8V35C2.8,43.1,7,45,17.5,45z M83.5,92c10.8,0,17.3-2.5,17.3-13.6V67.2
			c0-10.8-6.5-13.5-17.3-13.5h-9.7h-9.7c-10.9,0-17.3,2.7-17.3,13.5v11.3c0,11,6.4,13.6,17.3,13.6h9.7L83.5,92L83.5,92z M59.1,74.8
			v-4c0-4.7,1.3-7.5,7.5-7.5h7.1h7c6.4,0,7.6,2.9,7.6,7.5v4c0,5.5-1.3,7.5-6.9,7.5h-7.7H66C60.4,82.4,59.1,80.3,59.1,74.8z
			 M234.1,76.5h29.3v-7.7h-29.3v-6H265v-8.6h-43v37.5h43.7v-9h-31.6V76.5z M217.4,91.6l-23.8-19.2L215,54.1h-16.5l-15.2,13.7h-5.6
			V54.1h-12.1v37.5h12.1V77.2h5.3l17.4,14.4H217.4z M3.4,54.1v37.5h39.2v-9.7H15.4V54.1H3.4z M321.1,67.6v-2.4c0-6.6-2.4-11-11.8-11
			h-12.1h-24.3v37.5H285v-9.8h12.2h6.8c3.7,0,4.9,1.3,4.9,5.3v4.5H321v-6.4c0-6.2-3-7.6-6.6-8.3v-0.1
			C319.9,75.6,321.1,72.6,321.1,67.6z M309.4,68.6c0,2.7-1.2,3.9-4.5,3.9h-7.7H285v-9.1h12.2h6.7c3.7,0,5.5,0.6,5.5,3.9L309.4,68.6
			L309.4,68.6z M158.5,80.7v-3.5h-12.1c0,4.7-1.6,5.2-7,5.2h-13c-5.6,0-6.9-2-6.9-7.5v-4c0-4.7,1.3-7.5,7.5-7.5h13.2
			c3.6,0,5.6,0.7,5.6,3.5V68H158c0.1-10.6-2.1-14.1-19.3-14.1h-14.1c-10.8,0-17.3,2.7-17.3,13.5v11.3c0,11,6.5,13.6,17.3,13.6H144
			C156.1,92,158.5,87,158.5,80.7z"/>
	</g>
	<g>
		<path d="M2.8,118.3h14.6v3.7h-5v15.2H7.8V122h-5C2.8,122,2.8,118.3,2.8,118.3z"/>
		<path d="M39.4,122h-7v3.8h6.2v3.6h-6.2v4.2h7v3.7H27.8v-18.9h11.6V122z"/>
		<path d="M62.3,133.9h-7.1l-1.1,3.3h-4.8l6.9-18.9h5.3l6.8,18.9h-4.9L62.3,133.9z M58.8,123.4l-2.3,6.9h4.7L58.8,123.4z"/>
		<path d="M78.5,118.3H84l5.3,13.1l5.3-13.1h5.4v18.9h-4.6v-11.4l-4.2,11.4h-3.7l-4.3-11.4v11.4h-4.6v-18.9H78.5z"/>
		<path d="M125.1,118.3h4.6v11.3c0,2.2,1.1,3.5,3.3,3.5s3.3-1.3,3.3-3.5v-11.3h4.6v11.3c0,5.2-3.7,7.8-8,7.8c-4.4,0-7.8-2.6-7.8-7.8
			C125.1,129.6,125.1,118.3,125.1,118.3z"/>
		<path d="M169.3,118.3v18.9h-4.6l-7.7-11.7v11.7h-4.6v-18.9h4.6l7.7,11.7v-11.7H169.3z"/>
		<path d="M180.7,118.3h4.6v18.9h-4.6V118.3z"/>
		<path d="M196.8,118.3h12.3v3.7h-7.7v4h5.8v3.6h-5.8v7.7h-4.6V118.3z"/>
		<path d="M228.6,137.4c-5.4,0-9.7-4-9.7-9.7s4.4-9.7,9.7-9.7c5.4,0,9.7,4,9.7,9.7C238.2,133.4,233.9,137.4,228.6,137.4z
			 M228.6,133.2c3,0,5-2.2,5-5.5c0-3.4-2-5.5-5-5.5c-3.1,0-5,2.1-5,5.5C223.5,131,225.5,133.2,228.6,133.2z"/>
		<path d="M256.7,118.3c4.6,0,7,2.7,7,6c0,2.4-1.3,4.6-4.2,5.5l4.4,7.5h-5.2l-3.9-7.1h-1.1v7.1h-4.6v-18.9L256.7,118.3L256.7,118.3z
			 M256.4,122.1h-2.9v4.7h2.9c1.7,0,2.5-0.9,2.5-2.4C258.9,123.1,258.1,122.1,256.4,122.1z"/>
		<path d="M274.6,118.3h5.4l5.3,13.1l5.3-13.1h5.4v18.9h-4.6v-11.4l-4.2,11.4h-3.7l-4.3-11.4v11.4h-4.6L274.6,118.3L274.6,118.3z"/>
		<path d="M314.3,137.4c-4.1,0-7.3-2-7.4-5.9h4.9c0.1,1.5,1.1,2.2,2.3,2.2c1.4,0,2.2-0.7,2.2-1.8c0-3.5-9.5-1.6-9.4-8.3
			c0-3.6,2.9-5.6,6.9-5.6c4.1,0,6.9,2,7.1,5.7h-5c-0.1-1.2-0.9-1.9-2.2-2c-1.1,0-1.9,0.5-1.9,1.7c0,3.3,9.4,1.8,9.4,8.1
			C321.2,134.8,318.7,137.4,314.3,137.4z"/>
	</g>
	<rect x="3.4" y="103.4" class="st1" width="316.6" height="3.3"/>
</g>
</svg>
