<?xml version="1.0" encoding="UTF-8"?>
<svg xmlns="http://www.w3.org/2000/svg" xml:space="preserve" version="1.1" style="shape-rendering:geometricPrecision; text-rendering:geometricPrecision; image-rendering:optimizeQuality; fill-rule:evenodd; clip-rule:evenodd"
viewBox="100 9500 19800 8300">
 <defs>
  <style type="text/css">
   <![CDATA[
    .fil0 {fill:#FEFEFE}
    .fil1 {fill:#FEFEFE;fill-rule:nonzero}
    .fil2 {fill:#EC1C24;fill-rule:nonzero}
   ]]>
  </style>
 </defs>
 <g id="Layer_x0020_1">
  <metadata id="CorelCorpID_0Corel-Layer"/>
  <g id="_1576619710592">
   <path class="fil0" d="M11482.11 11980.42l1148.15 0c716.05,0 851.85,-308.64 851.85,-697.53l0 -216.05 -709.87 0c0,290.12 -98.76,314.81 -419.75,314.81l-759.26 0c-333.33,0 -407.41,-123.46 -407.41,-456.79l0 -253.09c0,-290.12 74.07,-462.96 444.44,-462.96l771.6 0c216.05,0 333.33,49.38 333.33,216.05l0 67.9 716.05 -0c6.17,-654.32 -123.46,-876.54 -1141.98,-876.54l-833.33 0c-641.98,0 -1030.87,166.67 -1030.87,845.68l0 685.19c6.18,672.84 395.07,833.34 1037.04,833.34zm6154.32 -623.46l716.05 0 401.24 0c222.22,0 296.3,80.25 296.3,320.99l0 283.95 709.88 0 0 -401.24c0,-382.72 -179.01,-469.13 -388.89,-512.35l0 -6.17c327.16,-80.25 401.24,-253.09 401.24,-567.9l0 -141.98c0,-419.75 -148.15,-697.53 -697.53,-697.53l-722.22 0 -1432.1 0 0 2327.16 716.05 0 0 -604.94zm0 -1148.15l716.05 0 395.06 0c222.22,0 327.16,37.04 327.16,246.91l0 74.07c0,172.84 -74.07,246.91 -259.26,246.91l-456.79 0 -716.05 0 -6.17 -567.9 0 0zm-10956.79 246.91c0,-679.01 -382.72,-845.68 -1024.69,-845.68l-567.9 0 -567.9 0c-641.98,0 -1024.69,166.67 -1024.69,845.68l0 685.19c0,679.01 382.72,839.51 1024.69,839.51l567.9 0 567.9 0c641.98,0 1024.69,-154.32 1024.69,-839.51l-0 -685.19zm-728.39 469.14c0,333.33 -74.07,456.79 -407.41,456.79l-456.79 -0 -450.62 0c-339.51,0 -407.41,-123.46 -407.41,-456.79l0 -253.09c0,-290.12 67.9,-462.96 444.44,-462.96l413.58 0 419.75 0c376.54,0 444.44,179.01 444.44,462.96 0,0 0,253.09 0,253.09zm8666.67 104.94l1728.4 0 0 -487.65 -1728.4 0 0 -364.2 1827.16 0 0 -543.21 -2537.04 0 0 2327.16 2580.24 0 0 -561.73 -1864.2 0 0 -370.37 -6.17 0zm-5660.49 351.85l-759.26 0c-339.51,0 -407.41,-123.46 -407.41,-456.79l0 -253.09c0,-290.12 67.9,-462.96 444.44,-462.96l771.6 0c209.88,0 333.33,49.38 333.33,216.05l0 67.9 703.7 -0c6.17,-654.32 -117.28,-876.54 -1129.63,-876.54l-839.5 0c-641.98,0 -1024.69,166.67 -1024.69,845.68l0 685.19c0,679.01 382.72,839.51 1024.69,839.51l1148.15 0c716.05,0 851.85,-308.64 851.85,-697.53l0 -216.05 -709.88 0c6.17,283.95 -86.42,308.64 -407.41,308.64zm-7870.37 598.77l858.02 0c950.62,0 1160.49,-98.76 1160.49,-728.39 0,-672.84 -253.09,-740.74 -1364.2,-740.74 -759.26,6.17 -845.68,0 -845.68,-203.7 0,-123.46 104.94,-179.01 271.61,-179.01l783.95 -0c327.16,0 345.68,67.9 345.68,234.57l709.88 0 0 -74.07c0,-407.41 -74.07,-685.19 -895.06,-685.19l-987.65 0c-901.23,6.17 -938.27,333.33 -938.27,753.09 0,567.9 123.46,703.7 1191.36,703.7 919.75,0 1000,12.35 1000,209.88 0,185.19 -154.32,197.53 -308.64,197.53l-870.37 -0c-203.7,0 -302.47,-18.52 -308.64,-259.26l-709.88 0 0 154.32c0,500 259.26,617.28 907.41,617.28zm4074.07 2901.23c666.67,0 1067.9,-154.32 1067.9,-839.51l-0 -691.35c0,-666.67 -401.24,-833.33 -1067.9,-833.33l-598.76 0 -598.76 0c-672.84,0 -1067.9,166.67 -1067.9,833.33l0 697.53c0,679.01 395.06,839.51 1067.9,839.51l598.76 -0 598.77 -6.17 0 0zm-1506.17 -1061.73l0 -246.91c0,-290.12 80.25,-462.96 462.96,-462.96l438.27 0 432.1 0c395.06,0 469.13,179.01 469.13,462.96l0 246.91c0,339.51 -80.25,462.96 -425.93,462.96l-475.31 -0 -475.31 0c-345.68,6.17 -425.93,-123.46 -425.93,-462.96zm10802.47 104.94l1808.64 0 0 -475.31 -1808.64 -0 0 -370.37 1907.41 0 0 -530.87 -2654.32 0 0 2314.81 2697.53 0 0 -555.56 -1950.62 -0 0 -382.71zm-1030.87 932.1l-1469.13 -1185.19 1320.99 -1129.63 -1018.52 0 -938.27 845.68 -345.68 0 0 -845.68 -746.91 0 0 2314.81 746.91 0 0 -888.89 327.16 0 1074.07 888.89 1049.38 0zm-13209.87 -2314.81l0 2314.81 2419.75 0 0 -598.76 -1679.01 -0 0 -1716.05 -740.74 0zm19611.11 833.33l0 -148.15c0,-407.41 -148.15,-679.01 -728.39,-679.01l-746.92 0 -1500 0 0 2314.81 746.92 0 0 -604.94 753.08 -0 419.76 0c228.39,0 302.47,80.25 302.47,327.16l0 277.78 746.91 0 0 -395.06c0,-382.72 -185.19,-469.13 -407.41,-512.35l0 -6.17c339.5,-80.25 413.58,-265.43 413.58,-574.07zm-722.22 61.73c0,166.67 -74.07,240.74 -277.78,240.74l-475.31 0 -753.08 0 0 -561.73 753.08 -0 413.58 0c228.39,0 339.51,37.04 339.51,240.74l-0 80.25 0 0zm-9314.81 746.91l0 -216.05 -746.91 0c0,290.12 -98.76,320.99 -432.1,320.99l-802.47 0c-345.68,0 -425.93,-123.46 -425.93,-462.96l0 -246.91c0,-290.12 80.25,-462.96 462.96,-462.96l814.81 0c222.22,0 345.68,43.21 345.68,216.05l0 67.9 753.09 0c6.17,-654.32 -129.63,-870.37 -1191.36,-870.37l-870.37 0c-666.67,0 -1067.9,166.67 -1067.9,833.33l0 697.53c0,679.01 401.24,839.51 1067.9,839.51l1197.53 -0c746.91,-18.52 895.06,-327.16 895.06,-716.05z"/>
  </g>
  <g id="_1576619707952">
   <path class="fil1" d="M179.65 16505.11l901.24 0 0 228.39 -308.64 0 0 938.27 -283.95 0 0 -938.27 -308.64 0c0,0 0,-228.4 0,-228.4z"/>
   <polygon class="fil1" points="2438.91,16733.5 2006.81,16733.5 2006.81,16968.07 2389.52,16968.07 2389.52,17190.29 2006.81,17190.29 2006.81,17449.55 2438.91,17449.55 2438.91,17677.94 1722.86,17677.95 1722.86,16511.28 2438.91,16511.28 "/>
   <path class="fil1" d="M3852.48 17468.07l-438.27 0 -67.9 203.7 -296.3 0 425.93 -1166.67 327.16 -0 419.75 1166.67 -302.47 0 -67.9 -203.7zm-216.05 -648.15l-141.98 425.93 290.13 0 -148.15 -425.93z"/>
   <polygon class="fil1" points="4852.48,16505.11 5191.99,16505.11 5519.15,17313.75 5846.31,16505.11 6179.65,16505.11 6179.65,17671.77 5895.7,17671.78 5895.7,16968.07 5636.44,17671.78 5408.04,17671.78 5142.61,16968.07 5142.61,17671.78 4858.66,17671.78 4858.66,16505.11 "/>
   <path class="fil1" d="M7729.03 16505.11l283.95 0 0 697.53c0,135.8 67.9,216.05 203.7,216.05 135.8,0 203.7,-80.25 203.7,-216.05l0 -697.53 283.95 0 0 697.53c0,320.99 -228.39,481.48 -493.83,481.48 -271.61,0 -481.48,-160.49 -481.48,-481.48 -0,0 -0,-697.53 -0,-697.53z"/>
   <polygon class="fil1" points="10457.43,16505.11 10457.43,17671.77 10173.47,17671.78 9698.17,16949.56 9698.17,17671.78 9414.21,17671.78 9414.21,16505.11 9698.17,16505.11 10173.47,17227.33 10173.47,16505.11 "/>
   <polygon class="fil1" points="11161.13,16505.11 11445.08,16505.11 11445.08,17671.77 11161.13,17671.78 "/>
   <polygon class="fil1" points="12154.96,16505.11 12914.21,16505.11 12914.21,16733.5 12438.91,16733.5 12438.91,16980.42 12796.93,16980.42 12796.93,17202.64 12438.91,17202.64 12438.91,17677.94 12154.96,17677.95 "/>
   <path class="fil1" d="M14117.92 17684.12c-333.33,0 -598.76,-246.91 -598.76,-598.76 0,-351.85 271.61,-598.76 598.76,-598.76 333.33,0 598.76,246.91 598.76,598.76 -6.17,351.85 -271.6,598.76 -598.76,598.76zm0 -259.26c185.19,0 308.64,-135.8 308.64,-339.51 0,-209.88 -123.46,-339.51 -308.64,-339.51 -191.36,0 -308.64,129.63 -308.64,339.51 -6.17,203.7 117.28,339.51 308.64,339.51z"/>
   <path class="fil1" d="M15852.48 16505.11c283.95,0 432.1,166.67 432.1,370.37 0,148.15 -80.25,283.95 -259.26,339.51l271.61 462.96 -320.99 0 -240.74 -438.27 -67.9 0 0 438.27 -283.95 0 0 -1166.67 469.13 -6.18 0 0zm-18.52 234.57l-179.01 0 0 290.12 179.01 0c104.94,0 154.32,-55.56 154.32,-148.15 -0,-80.24 -49.39,-141.97 -154.32,-141.97z"/>
   <polygon class="fil1" points="16957.43,16505.11 17290.76,16505.11 17617.92,17313.75 17945.08,16505.11 18278.41,16505.11 18278.41,17671.77 17994.46,17671.78 17994.46,16968.07 17735.2,17671.78 17506.81,17671.78 17241.37,16968.07 17241.37,17671.78 16957.43,17671.78 16957.43,16505.11 "/>
   <path class="fil1" d="M19408.04 17684.12c-253.09,0 -450.62,-123.46 -456.79,-364.2l302.47 0c6.17,92.59 67.9,135.8 141.98,135.8 86.42,0 135.8,-43.21 135.8,-111.11 0,-216.05 -586.42,-98.76 -580.25,-512.35 0,-222.22 179.01,-345.68 425.93,-345.68 253.09,0 425.93,123.46 438.27,351.85l-308.64 0c-6.17,-74.07 -55.56,-117.28 -135.8,-123.46 -67.9,0 -117.28,30.87 -117.28,104.94 0,203.7 580.25,111.11 580.25,500 0,203.7 -154.32,364.2 -425.93,364.2z"/>
  </g>
  <rect class="fil2" x="216.68" y="15585.35" width="19543.21" height="203.7"/>
 </g>
</svg>
